PathFileType	4	(X/Y/Z)	C:/Users/beibeiliu/ov580/test_trc/User1\sequence.22_training_dense_left.trc
DataRate	CameraRate	NumFrames	NumMarkers	Units	OrigDataRate	OrigDataStartFrame	OrigNumFrames
120	120	20	19	mm	120	1	273
Frame#	Time	ThumbCMC			ThumbMCP			ThumbIP			ThumbTip			IndexMCP			IndexPIP			IndexTip			MiddleMCP			MiddlePIP			MiddleTip			RingMCP			RingPIP			RingTip			PinkyMCP			PinkyPIP			PinkyTip			BackHand1			BackHand2			BackHand3	
		X0	Y0	Z0	X1	Y1	Z1	X2	Y2	Z2	X3	Y3	Z3	X4	Y4	Z4	X5	Y5	Z5	X6	Y6	Z6	X7	Y7	Z7	X8	Y8	Z8	X9	Y9	Z9	X10	Y10	Z10	X11	Y11	Z11	X12	Y12	Z12	X13	Y13	Z13	X14	Y14	Z14	X15	Y15	Z15	X16	Y16	Z16	X17	Y17	Z17	X18	Y18	Z18	
0	0	-156.612	27.0061	68.32	-134.217	11.6813	63.1479	-108.258	6.7436	55.2204	-86.2387	1.63001	51.2944	-162.672	20.0276	-17.7906	-157.427	19.9633	-41.6988	-155.703	25.0998	-71.1247	-187.936	21.6383	-32.393	-187.939	20.4887	-59.5714	-190.436	19.9556	-88.7188	-210.357	17.5718	-30.1221	-211.819	17.8524	-52.2416	-214.363	16.2372	-77.2067	-240.543	9.70899	-10.6893	-245.989	9.15882	-25.5375	-249.678	17.3124	-49.5083	-215.184	33.7748	20.203	-222.916	46.7828	55.7059	-185.112	41.8835	40.8691	
1	0.00833333	-158.487	26.0106	65.4903	-133.751	12.7928	61.5129	-112.66	4.96823	51.0261	-87.7202	0.959821	49.9957	-164.132	20.5626	-19.8211	-159.819	21.672	-46.2514	-158.696	25.064	-72.7902	-188.222	22.0722	-35.2342	-187.95	20.8582	-57.3776	-191.379	20.608	-89.107	-215.858	18.8956	-28.6866	-211.644	18.0196	-53.0761	-214.209	18.2401	-82.5879	-238.312	10.068	-7.41744	-248.624	10.6681	-30.6473	-252.456	19.1017	-47.637	-219.265	33.725	23.3702	-222.463	47.4281	52.7436	-185.124	40.9098	39.1757	
2	0.0166667	-159.844	25.7566	67.2516	-137.194	12.2931	62.8499	-108.441	5.03963	51.055	-92.4556	0.337951	51.3425	-159.188	20.031	-22.8291	-160.589	20.2189	-44.2341	-155.546	23.6515	-68.2761	-191.202	22.5082	-32.0336	-188.626	20.4511	-58.6251	-188.555	20.3815	-87.2657	-211.357	18.7727	-26.4091	-212.37	17.7143	-57.579	-215.509	17.4982	-81.7327	-240.456	11.1064	-8.65035	-248.617	10.1359	-28.5328	-251.56	16.7746	-49.0574	-220.353	34.1801	22.5531	-222.462	45.5484	52.9537	-187.788	41.0671	41.6229	
3	0.025	-155.383	25.2306	63.8832	-136.108	11.0635	60.1957	-111.053	4.62661	51.8649	-92.8273	0.603445	53.5902	-161.946	19.4965	-22.4872	-155.99	21.1914	-46.7401	-160.954	22.5584	-67.9013	-188.79	22.3499	-30.4914	-188.767	20.695	-60.7263	-191.163	20.2627	-88.1541	-210.719	18.576	-29.1434	-213.051	17.6361	-56.2052	-213.016	16.694	-76.6357	-235.766	10.1833	-8.04209	-243.979	10.9855	-29.1501	-251.339	18.932	-48.326	-218.059	32.5721	20.2391	-225.884	45.7909	51.1087	-185.633	40.7763	38.9824	
4	0.0333333	-160.298	25.1148	66.3474	-133.632	10.9997	59.6158	-109.532	5.5569	54.604	-89.6608	1.53621	54.3938	-159.001	20.081	-18.5857	-157.592	20.452	-41.7985	-155.802	23.3072	-66.5158	-185.825	23.08	-35.9652	-185.484	19.9308	-62.7783	-188.211	20.1078	-86.3308	-215.019	17.6626	-28.3642	-211.328	17.9445	-57.5148	-214.64	16.4388	-81.3609	-241.084	9.85618	-9.62183	-242.269	9.78286	-28.2086	-251.263	18.1501	-48.9898	-218.251	34.271	20.4395	-219.492	46.0993	50.6253	-185.915	39.7736	39.1174	
5	0.0416667	-158.352	24.1998	63.153	-134.835	11.4559	59.831	-109.085	5.01384	49.9725	-88.3901	2.0169	53.2666	-158.073	19.5938	-17.0271	-159.802	20.2256	-45.9277	-156.424	22.6123	-66.5774	-189.647	21.7277	-34.7156	-186.088	20.217	-59.617	-191.126	19.6423	-87.3225	-215.172	18.023	-28.0943	-214.154	17.9217	-57.1005	-215.9	16.223	-78.2901	-238.248	10.8641	-9.49624	-241.729	9.71339	-26.278	-250.99	15.3694	-48.9969	-215.184	34.4824	24.7081	-221.983	45.5749	52.6431	-182.646	39.864	41.4207	
6	0.05	-156.377	25.3552	64.5172	-132.482	12.4876	60.5625	-112.7	4.55469	52.9011	-91.2029	1.81655	51.4147	-161.619	19.9362	-22.2944	-156.719	19.443	-41.378	-158.8	22.8661	-66.8325	-190.426	22.132	-35.0649	-185.835	20.2805	-57.0404	-188.802	21.58	-88.5017	-210.48	18.6028	-25.6098	-212.871	17.8622	-53.9559	-211.914	18.2069	-81.4764	-240.376	10.8226	-9.39715	-245.203	10.1812	-31.312	-250.336	16.3549	-50.9636	-214.368	32.9708	25.858	-223.792	46.4421	54.2712	-186.06	42.2289	42.092	
7	0.0583333	-158.375	27.294	68.7761	-135.015	13.1472	62.7693	-107.988	7.89164	51.6168	-89.2836	4.36393	53.3632	-160.641	21.3521	-21.0206	-155.678	21.0248	-46.0223	-159.668	24.2592	-66.8395	-188.624	22.6641	-34.8769	-186.906	20.5026	-58.1487	-185.357	21.4441	-91.3583	-210.312	19.4747	-27.1913	-215.297	18.1394	-54.7076	-214.684	17.0197	-78.3146	-240.232	12.084	-12.3974	-242.901	10.4623	-28.4202	-249.698	16.4007	-54.4026	-219.854	34.2473	24.7938	-223.56	46.4168	52.5116	-183.138	43.3772	41.6375	
8	0.0666667	-158.415	26.3646	66.1906	-134.608	13.0782	59.789	-112.462	7.22262	50.2942	-88.0754	4.02821	48.0024	-161.147	22.8943	-18.6554	-157.315	23.7506	-46.8854	-154.345	27.1148	-71.2148	-188.476	24.3039	-31.6765	-189.629	21.8092	-61.9602	-188.18	21.5298	-89.0092	-212.732	20.195	-29.2209	-215.066	18.8002	-54.5445	-211.74	17.0953	-81.2484	-239.988	11.9981	-8.25692	-242.432	10.4872	-27.7291	-249.534	16.6644	-52.2757	-217.57	33.8132	23.7237	-225.495	46.3023	55.6176	-186.044	41.8647	42.8594	
9	0.075	-161.732	27.7773	67.0057	-132.109	16.2969	62.1469	-110.361	11.5906	53.8553	-92.2091	4.35818	48.5219	-160.474	24.8352	-19.9458	-160.74	25.2566	-42.7876	-158.98	29.0235	-69.1042	-187.616	25.6899	-34.2361	-186.035	23.3537	-59.9017	-187.93	21.3891	-88.0599	-210.289	20.6807	-30.6363	-216.906	18.7866	-53.3725	-214.597	15.0875	-80.0145	-235.368	11.5737	-8.52863	-243.749	9.72087	-30.9875	-246.737	14.3913	-53.1538	-221.387	34.5607	23.8242	-225.767	45.8373	51.8138	-186.485	43.2909	43.8496	
10	0.0833333	-160.443	30.8221	65.2979	-135.288	19.2541	60.7406	-111.264	14.0388	50.3654	-89.4573	10.7031	47.6567	-163.893	28.141	-21.8579	-158.798	29.1165	-44.3633	-160.109	32.3215	-72.5368	-190.177	28.2874	-36.3616	-187.943	25.0526	-59.8599	-192.31	21.8104	-89.2821	-217.927	19.5748	-29.7058	-217.403	17.5029	-54.7974	-214.957	13.7614	-82.2448	-236.133	11.3678	-9.93736	-243.057	9.47213	-32.1746	-246.05	11.1756	-55.0072	-223.095	35.2347	24.1175	-227.204	44.2378	51.4679	-190.567	45.6403	42.3013	
11	0.0916667	-166.462	31.3825	67.4098	-135.655	23.645	63.2221	-112.404	20.1153	51.6613	-94.2806	15.2685	45.7091	-163.971	33.233	-21.9297	-159.958	34.0837	-46.9358	-161.505	34.7446	-69.509	-191.757	30.8757	-33.3602	-190.884	27.0773	-62.5981	-190.053	21.2213	-93.6769	-217.07	19.4561	-28.47	-213.581	15.0851	-55.0185	-215.282	8.21397	-79.4035	-235.844	10.119	-16.2819	-240.053	5.7643	-31.8097	-246.316	4.24684	-58.7332	-225.094	36.6099	22.472	-232.971	44.0108	53.6989	-190.313	45.2572	42.494	
12	0.1	-168.079	35.8467	63.6811	-141.455	25.7564	58.3286	-114.366	26.2211	50.377	-94.5197	25.5725	46.2967	-165.924	40.7871	-22.2762	-160.88	41.8444	-45.413	-162.302	40.808	-68.5248	-191.326	34.78	-34.9524	-189.867	28.4615	-64.1438	-188.789	19.6425	-89.9916	-218.471	20.2636	-30.6263	-209.819	13.2403	-58.9653	-208.276	0.585889	-80.8249	-238.783	7.35792	-12.6256	-239.258	1.12827	-32.9147	-237.114	-5.39625	-62.1492	-223.475	35.6623	22.9207	-234.401	42.1787	57.6938	-196.995	47.6134	45.7553	
13	0.108333	-170.261	39.4107	68.1159	-140.076	34.4624	58.2039	-116.672	36.0229	45.8306	-96.0195	34.8674	40.4556	-174.136	46.1495	-19.5598	-168.265	48.0465	-43.5559	-165.793	46.6406	-73.1705	-195.178	38.0877	-36.9752	-187.738	29.8582	-64.0744	-181.71	15.3202	-88.1545	-214.994	21.0648	-32.817	-208.35	10.5556	-56.4249	-197.724	-8.02791	-75.3975	-234.131	6.25628	-18.1722	-232.498	-7.00277	-39.5302	-220.636	-16.8545	-60.2372	-227.584	34.5507	23.2475	-238.033	40.6074	55.8322	-202.975	52.164	48.3284	
14	0.116667	-172.875	47.1702	66.5659	-146.154	42.1594	57.2669	-122.347	46.5386	43.6845	-102.963	47.0795	33.466	-179.851	52.5262	-23.6414	-175.132	52.1963	-47.2124	-170.36	48.3926	-74.2116	-197.48	40.6679	-34.1558	-186.076	29.8498	-62.932	-171.15	2.81705	-84.6982	-214.476	20.4017	-32.3232	-201.697	4.95906	-57.2861	-184.369	-15.4315	-64.2844	-234.35	0.0643094	-18.7362	-226.072	-10.2079	-37.5431	-200.774	-27.1569	-53.4657	-235.507	31.6318	25.1781	-239.757	34.3789	55.8354	-209.499	52.7184	45.3905	
15	0.125	-178.722	54.2333	63.3302	-151.11	53.128	48.7469	-128.686	61.791	31.8006	-110.446	62.6915	26.1546	-187.817	59.0859	-24.223	-181.079	58.4527	-50.5611	-176.754	47.5194	-79.7799	-204.666	39.175	-35.4473	-181.593	26.7813	-63.5125	-159.547	1.77943	-67.9525	-215.699	16.5198	-31.6966	-194.021	1.97859	-52.2495	-171.077	-19.3614	-47.1399	-229.248	-5.73538	-17.7566	-211.109	-14.3105	-35.5366	-179.913	-22.9915	-36.7057	-235.313	27.7881	22.4976	-243.397	29.0396	56.3971	-216.443	56.2685	42.1023	
16	0.133333	-184.627	59.4562	61.4451	-155.196	61.7446	41.532	-138.093	67.8405	26.3291	-118.5	74.4875	12.4912	-196.459	58.6737	-25.4139	-187.701	52.8074	-55.9856	-177.338	43.7696	-78.2433	-206.544	33.9215	-35.7336	-179.923	20.3877	-58.8953	-150.833	1.84253	-47.9638	-209.194	13.3594	-32.6198	-182.826	-4.50143	-46.5591	-157.829	-16.128	-25.3093	-219.167	-10.3743	-18.3328	-197.385	-17.549	-30.8223	-168.402	-17.0661	-18.5758	-238.04	21.5966	25.671	-244.596	24.3603	54.1844	-224.14	52.5647	39.6739	
17	0.141667	-189.185	63.3672	55.6648	-162.755	62.7244	39.6902	-145.456	72.047	20.8932	-126.688	80.398	6.13604	-201.278	59.166	-28.5974	-190.118	48.8461	-58.3395	-174.451	39.3073	-77.0907	-203.379	30.2778	-41.2587	-173.658	21.3711	-53.4997	-144.775	8.04141	-26.648	-204.968	5.66457	-33.2733	-174.299	-4.63012	-39.0287	-154.242	-1.89258	-9.778	-211.47	-12.7803	-16.0582	-181.156	-18.3655	-22.857	-162.636	-8.45698	-3.40558	-237.26	17.7861	21.4547	-244.554	15.6295	52.8131	-229.669	47.2938	39.2905	
18	0.15	-195.236	65.4055	50.6747	-169.905	64.9752	34.4028	-152.015	78.1633	11.3571	-138.232	81.6342	-3.42848	-207.423	54.4	-30.742	-193.987	48.2247	-59.1468	-172.057	35.373	-75.9045	-204.791	27.8659	-39.4871	-167.259	18.6182	-47.3236	-147.447	16.5908	-19.5354	-200.681	2.93814	-30.2383	-164.513	-2.63148	-28.7823	-154.55	6.1241	4.62994	-202.462	-16.8716	-14.1398	-171.91	-11.2088	-14.6575	-163.116	4.32729	7.95108	-236.068	12.2127	22.6789	-244.303	9.66586	55.7938	-232.005	41.5298	39.0938	
19	0.158333	-201.751	63.0821	48.3823	-174.674	71.5938	29.5046	-161.319	79.3935	7.52974	-145.607	87.6548	-8.66358	-213.564	47.5497	-37.5237	-198.914	44.4858	-58.8914	-170.209	36.8996	-73.2023	-202.505	23.6287	-41.948	-168.006	26.7549	-44.6525	-151.287	26.6866	-11.0736	-191.834	-0.327768	-29.6284	-162.052	5.35371	-23.546	-157.994	16.1541	11.3305	-195.639	-19.4548	-11.6311	-165.994	-8.74263	-9.57346	-166.483	10.1083	17.8892	-236.597	5.20739	19.8314	-238.427	5.11128	58.2741	-235.909	42.0884	39.2447	
